<?xml version="1.0" standalone="no"?>
<!DOCTYPE svg PUBLIC "-//W3C//DTD SVG 20010904//EN"
 "http://www.w3.org/TR/2001/REC-SVG-20010904/DTD/svg10.dtd">
<svg version="1.0" xmlns="http://www.w3.org/2000/svg"
 width="1600.000000pt" height="1200.000000pt" viewBox="0 0 1600.000000 1200.000000"
 preserveAspectRatio="xMidYMid meet">

<g transform="translate(0.000000,1200.000000) scale(0.100000,-0.100000)"
fill="#000000" stroke="none">
<path d="M7810 11419 c-343 -35 -596 -160 -784 -388 -171 -207 -258 -410 -301
-697 -13 -90 -15 -304 -16 -1614 l0 -1510 -1407 0 c-820 0 -1468 -4 -1552 -10
-409 -28 -732 -174 -940 -426 -156 -188 -233 -390 -261 -684 -51 -542 183
-1017 626 -1265 112 -63 249 -110 425 -147 39 -8 493 -13 1580 -17 l1525 -6 2
-1405 c1 -773 4 -1472 6 -1555 14 -387 154 -725 393 -944 154 -142 323 -226
554 -276 118 -25 400 -31 538 -11 541 80 883 412 1014 985 l22 96 3 1557 4
1558 1532 2 1532 3 107 23 c296 63 498 170 678 358 86 90 134 160 191 274 123
251 161 631 93 957 -56 271 -190 486 -407 654 -214 166 -447 247 -772 269 -79
6 -758 10 -1547 10 l-1408 0 -2 1553 -3 1552 -23 105 c-53 238 -142 424 -283
594 -211 253 -445 369 -818 406 -117 11 -179 11 -301 -1z"/>
<path d="M12254 775 c-8 -19 3 -35 26 -35 19 0 34 25 24 41 -8 14 -44 10 -50
-6z"/>
<path d="M12484 775 c-4 -9 -2 -21 4 -27 16 -16 47 -5 47 17 0 26 -42 34 -51
10z"/>
<path d="M12717 777 c-8 -21 8 -39 29 -35 27 5 25 42 -2 46 -12 2 -24 -3 -27
-11z"/>
<path d="M12280 531 c0 -28 3 -31 31 -31 27 0 30 3 27 28 -2 21 -9 28 -30 30
-25 3 -28 0 -28 -27z"/>
<path d="M12690 530 c0 -25 4 -30 25 -30 21 0 25 5 25 30 0 25 -4 30 -25 30
-21 0 -25 -5 -25 -30z"/>
<path d="M14367 684 l-26 -59 30 -3 c16 -2 41 -2 54 0 l25 3 -28 59 -28 59
-27 -59z"/>
<path d="M14136 669 c-42 -33 -35 -99 14 -124 77 -40 147 59 85 120 -30 30
-64 32 -99 4z"/>
<path d="M15045 678 c-29 -16 -35 -28 -35 -69 0 -36 17 -60 52 -72 24 -9 76
11 88 33 38 72 -36 147 -105 108z"/>
</g>
</svg>
