<?xml version="1.0" standalone="no"?>
<!DOCTYPE svg PUBLIC "-//W3C//DTD SVG 20010904//EN"
 "http://www.w3.org/TR/2001/REC-SVG-20010904/DTD/svg10.dtd">
<svg version="1.0" xmlns="http://www.w3.org/2000/svg"
 width="1024.000000pt" height="1024.000000pt" viewBox="0 0 1024.000000 1024.000000"
 preserveAspectRatio="xMidYMid meet">

<g transform="translate(0.000000,1024.000000) scale(0.100000,-0.100000)"
fill="#000000" stroke="none">
<path d="M4790 10229 c-824 -56 -1650 -324 -2360 -767 -993 -619 -1743 -1552
-2142 -2662 -422 -1174 -376 -2504 124 -3660 342 -787 889 -1497 1571 -2035
705 -557 1573 -932 2442 -1054 263 -37 387 -45 695 -45 604 0 1079 79 1635
271 755 261 1393 661 1965 1233 427 426 749 875 1006 1405 271 557 428 1113
491 1727 24 240 24 737 -1 973 -62 602 -220 1156 -485 1700 -116 238 -188 366
-328 579 -382 582 -873 1081 -1443 1465 -230 155 -377 241 -617 359 -556 274
-1120 436 -1733 498 -181 18 -641 26 -820 13z m610 -889 c382 -27 712 -93
1061 -211 967 -327 1767 -969 2282 -1829 274 -459 477 -1006 558 -1508 47
-297 63 -757 35 -1052 -39 -408 -124 -762 -277 -1150 -325 -828 -881 -1517
-1619 -2005 -249 -164 -547 -319 -790 -410 -391 -147 -682 -218 -1090 -267
-144 -18 -729 -17 -875 0 -507 62 -928 184 -1370 396 -870 420 -1577 1124
-1996 1990 -371 767 -501 1575 -388 2400 135 985 641 1923 1396 2586 857 753
1971 1137 3073 1060z"/>
<path d="M4757 6893 c209 -214 562 -575 785 -803 l406 -415 -1709 -3 -1709 -2
0 -555 0 -555 1705 0 c938 0 1705 -3 1705 -8 0 -4 -349 -364 -775 -800 -426
-436 -775 -795 -775 -797 0 -3 334 -5 743 -5 l742 0 1028 1075 c565 591 1027
1081 1027 1089 0 9 -62 80 -138 158 -312 324 -1851 1936 -1881 1971 l-33 37
-750 0 -750 0 379 -387z"/>
</g>
</svg>
